<?xml version="1.0" standalone="no"?>
<!DOCTYPE svg PUBLIC "-//W3C//DTD SVG 1.1//EN" "http://www.w3.org/Graphics/SVG/1.1/DTD/svg11.dtd" >
<svg>
<metadata>
Created by FontForge 20110222 at Mon Mar  7 10:43:23 2011
 By www-data
Typeface (c) Awareness Center. 2007. All Rights Reserved
</metadata>
<defs>
<font id="Tasmin" horiz-adv-x="973" >
  <font-face 
    font-family="Tasmin"
    font-weight="500"
    font-stretch="normal"
    units-per-em="2048"
    panose-1="4 3 6 5 6 11 2 2 8 2"
    ascent="1638"
    descent="-410"
    x-height="810"
    cap-height="1440"
    bbox="-80 -494 1965 2044"
    underline-thickness="90"
    underline-position="-105"
    unicode-range="U+0020-2122"
  />
    <missing-glyph />
    <glyph glyph-name="space" unicode=" " horiz-adv-x="512" 
 />
    <glyph glyph-name="space" unicode="&#xa0;" horiz-adv-x="512" 
 />
    <glyph glyph-name="exclam" unicode="!" horiz-adv-x="593" 
d="M413 1400v-1011h-233v1011h233zM413 248v-248h-233v248h233z" />
    <glyph glyph-name="quotedbl" unicode="&#x22;" horiz-adv-x="655" 
d="M100 1440h194q-30 -220 -30 -389h-134q0 169 -30 389zM361 1440h194q-30 -220 -30 -389h-134q0 169 -30 389z" />
    <glyph glyph-name="numbersign" unicode="#" horiz-adv-x="1620" 
d="M1215 900l-180 -360h360l-90 -180h-360l-180 -360h-180l180 360h-270l-180 -360h-180l180 360h-270l90 180h270l180 360h-360l90 180h360l180 360h180l-180 -360h270l180 360h180l-180 -360h270l-90 -180h-270zM855 540l180 360h-270l-180 -360h270z" />
    <glyph glyph-name="dollar" unicode="$" horiz-adv-x="1113" 
d="M432 1511h187v-93q155 -39 202 -140l-128 -132q-105 54 -167 54q-47 0 -78 -19.5t-31 -96.5q0 -102 303 -232t303 -383q0 -260 -140 -363t-264 -103v-94h-187v94q-109 0 -225.5 103t-116.5 192l156 132q128 -209 280 -209q136 0 200 62t64 186q0 121 -303 260.5
t-303 346.5q0 174 91 265.5t157 91.5v78z" />
    <glyph glyph-name="percent" unicode="%" horiz-adv-x="1715" 
d="M1130 1440h180l-720 -1440h-180zM542 691.5q56 100.5 56 242.5q0 143 -56 243t-135 100q-80 0 -136.5 -100t-56.5 -243q0 -142 56.5 -242.5t136.5 -100.5q79 0 135 100.5zM407 444q-131 0 -224 145t-93 351t93 351t224 145t224.5 -145t93.5 -351t-93.5 -351t-224.5 -145z
M1442 239q56 100 56 243t-56 242.5t-135 99.5q-80 0 -136.5 -99.5t-56.5 -242.5t56.5 -243t136.5 -100q79 0 135 100zM1307 -9q-131 0 -224 145.5t-93 350.5q0 206 93 351.5t224 145.5t224.5 -145.5t93.5 -351.5q0 -205 -93.5 -350.5t-224.5 -145.5z" />
    <glyph glyph-name="ampersand" unicode="&#x26;" horiz-adv-x="1253" 
d="M945 1440v-227h-466q70 -248 248 -248h94v77h249v-77h93v-234h-93v-474q12 -210 78 -257h-203l-77 78q-163 -93 -296 -93q-214 0 -348 144t-134 330q0 323 280 444v15q-140 186 -140 436v86h715zM324 482q0 -264 264 -264q249 0 249 264v238h-265q-248 0 -248 -238z" />
    <glyph glyph-name="quotesingle" unicode="'" horiz-adv-x="394" 
d="M100 1440h194q-30 -220 -30 -389h-134q0 169 -30 389z" />
    <glyph glyph-name="parenleft" unicode="(" horiz-adv-x="791" 
d="M662 1496q-249 -421 -249 -809q0 -475 288 -887h-256q-265 346 -265 902q0 432 248 794h234z" />
    <glyph glyph-name="parenright" unicode=")" horiz-adv-x="791" 
d="M362 1496q249 -362 249 -794q0 -556 -264 -902h-257q288 412 288 887q0 388 -249 809h233z" />
    <glyph glyph-name="asterisk" unicode="*" horiz-adv-x="995" 
d="M539 1297l192 265l116 -117l-255 -201l313 53v-177l-313 50l244 -201l-120 -111l-177 259l42 -311l-162 -1l46 312l-177 -263l-139 132l263 184l-322 -47v172l322 -50l-261 202l117 116l197 -266l-49 328h166z" />
    <glyph glyph-name="plus" unicode="+" horiz-adv-x="1080" 
d="M90 720h360v360h180v-360h360v-180h-360v-360h-180v360h-360v180z" />
    <glyph glyph-name="comma" unicode="," horiz-adv-x="528" 
d="M348 270q0 -311 -93 -389h-165q78 78 78 389h180z" />
    <glyph glyph-name="hyphen" unicode="-" horiz-adv-x="620" 
d="M570 521v-180h-520v180h520z" />
    <glyph glyph-name="hyphen" unicode="&#xad;" horiz-adv-x="620" 
d="M570 521v-180h-520v180h520z" />
    <glyph glyph-name="period" unicode="." horiz-adv-x="593" 
d="M413 270v-270h-233v270h233z" />
    <glyph glyph-name="slash" unicode="/" horiz-adv-x="936" 
d="M738 1440h180l-720 -1440h-180z" />
    <glyph glyph-name="zero" unicode="0" horiz-adv-x="1080" 
d="M690.5 338.5q56.5 146.5 56.5 348.5t-56.5 348.5t-150.5 146.5q-96 0 -151.5 -146.5t-55.5 -348.5t55.5 -348.5t151.5 -146.5q94 0 150.5 146.5zM540 -18q-185 0 -317.5 210.5t-132.5 502.5q0 291 132.5 502t317.5 211t317.5 -211t132.5 -502q0 -292 -132.5 -502.5
t-317.5 -210.5z" />
    <glyph glyph-name="one" unicode="1" horiz-adv-x="734" 
d="M554 1400v-1400h-234v918q-46 -70 -140 -94v249q140 152 171 327h203z" />
    <glyph glyph-name="two" unicode="2" horiz-adv-x="1020" 
d="M705 1019q0 82 -58.5 138t-136.5 56q-82 0 -138 -56t-56 -138q0 -55 54 -156l-151 -144q-129 105 -129 292q0 175 122.5 297.5t297.5 122.5t297.5 -122.5t122.5 -297.5q0 -346 -428 -778h412v-233h-792v179q263 230 423 443.5t160 396.5z" />
    <glyph glyph-name="three" unicode="3" horiz-adv-x="1117" 
d="M871 1438q47 -38 47 -178q0 -183 -148 -370q257 -171 257 -424q0 -190 -147.5 -328t-318.5 -138q-214 0 -342.5 112.5t-128.5 182.5l191 109v-5q0 -52 81 -111q85 -62 199 -62q77 0 155 69.5t78 170.5q0 109 -85.5 191t-226.5 82h-124v202q141 0 230 76t89 196h-412v225
h606z" />
    <glyph glyph-name="four" unicode="4" horiz-adv-x="1020" 
d="M868 1450v-952h62v-233h-62v-265h-233v265h-545q0 722 778 1185zM355 498h280v474q-195 -132 -280 -474z" />
    <glyph glyph-name="five" unicode="5" horiz-adv-x="1144" 
d="M930 1415v-222h-374q0 -139 -38 -264q93 -7 175 -7q131 0 246 -126.5t115 -313.5q0 -217 -140 -349.5t-342 -132.5q-194 0 -338 128.5t-144 275.5l203 78q89 -264 279 -264q133 0 191 81.5t58 182.5q0 109 -70 171.5t-148 62.5q-109 0 -202 -63l-171 125q93 303 93 637
h607z" />
    <glyph glyph-name="six" unicode="6" horiz-adv-x="1156" 
d="M576 716q-105 0 -179 -72t-74 -178q0 -104 74 -176t179 -72q101 0 177 72t76 176q0 106 -76 178t-177 72zM90 463q20 478 607 968l225 -109q-366 -300 -369 -381q226 0 369.5 -138t143.5 -332q0 -195 -143.5 -333t-346.5 -138q-202 0 -342 136t-144 327z" />
    <glyph glyph-name="seven" unicode="7" horiz-adv-x="978" 
d="M888 1400v-202q-497 -506 -497 -1198h-233q0 692 372 1166l-440 1v233h798z" />
    <glyph glyph-name="eight" unicode="8" horiz-adv-x="1144" 
d="M572 1186q-46 0 -77 -33t-31 -80t31 -78t77 -31q47 0 80 31t33 78t-33 80t-80 33zM735.5 291.5q70.5 73.5 70.5 179.5q0 101 -70.5 174.5t-171.5 73.5q-100 0 -170.5 -73.5t-70.5 -174.5q0 -106 70.5 -179.5t170.5 -73.5q101 0 171.5 73.5zM293 875q-63 89 -63 198
q0 140 101 241t241 101q144 0 243 -101t99 -241q0 -113 -62 -198q31 -24 62 -51q140 -144 140 -342q0 -202 -142 -342t-340 -140q-202 0 -342 140t-140 342q0 198 140 342q31 27 63 51z" />
    <glyph glyph-name="nine" unicode="9" horiz-adv-x="1156" 
d="M580 716q105 0 179 72t74 176q0 105 -74 177t-179 72q-101 0 -176.5 -72t-75.5 -177q0 -104 75.5 -176t176.5 -72zM1066 968q-19 -478 -607 -968l-225 109q365 300 369 381q-225 0 -369 138t-144 332q0 195 144 333t346 138t342 -136.5t144 -326.5z" />
    <glyph glyph-name="colon" unicode=":" horiz-adv-x="593" 
d="M413 270v-270h-233v270h233zM413 720v-280h-233v280h233z" />
    <glyph glyph-name="semicolon" unicode=";" horiz-adv-x="598" 
d="M401 270q-35 -280 -171 -357h-140q94 77 94 357h217zM418 720v-280h-234v280h234z" />
    <glyph glyph-name="semicolon" unicode="&#x37e;" horiz-adv-x="598" 
d="M401 270q-35 -280 -171 -357h-140q94 77 94 357h217zM418 720v-280h-234v280h234z" />
    <glyph glyph-name="less" unicode="&#x3c;" horiz-adv-x="917" 
d="M90 588l673 254l64 -169l-423 -160l423 -159l-64 -169l-673 254v149z" />
    <glyph glyph-name="equal" unicode="=" horiz-adv-x="901" 
d="M811 900v-180h-721v180h721zM811 540v-180h-721v180h721z" />
    <glyph glyph-name="greater" unicode="&#x3e;" horiz-adv-x="917" 
d="M827 439l-673 -254l-64 169l423 159l-423 160l64 169l673 -254v-149z" />
    <glyph glyph-name="question" unicode="?" horiz-adv-x="1051" 
d="M479 1517q218 0 350 -110.5t132 -308.5q0 -249 -233.5 -336.5t-233.5 -139.5q0 -53 43 -53t51 31l139 -140q-89 -77 -248 -77q-203 50 -203 233q0 179 218 260.5t218 198.5q0 120 -62 164.5t-171 44.5q-89 0 -249 -109l-140 171q151 171 389 171zM635 270v-273h-234v273
h234z" />
    <glyph glyph-name="at" unicode="@" horiz-adv-x="1622" 
d="M912.5 514.5q47.5 47.5 47.5 115.5t-47.5 115t-115.5 47t-115.5 -47t-47.5 -115t47.5 -115.5t115.5 -47.5t115.5 47.5zM1126 500q0 -103 54 -186h-155q-23 0 -39 47q-82 -59 -189 -59q-136 0 -232.5 96t-96.5 232t96.5 232t232.5 96t232.5 -96t96.5 -232v-130zM804 1180
q-227 0 -388 -160t-161 -386q0 -227 161 -387t388 -160t388.5 160t161.5 387q0 226 -161.5 386t-388.5 160zM1321 1141q211 -210 211 -507t-211 -507.5t-510 -210.5t-510 210.5t-211 507.5t211 507t510 210t510 -210z" />
    <glyph glyph-name="A" unicode="A" horiz-adv-x="1035" 
d="M945 1478v-1478h-225v585h-304q-101 -252 -101 -585h-225q0 1034 855 1478zM528 810h192v238q-143 -134 -192 -238z" />
    <glyph glyph-name="B" unicode="B" horiz-adv-x="945" 
d="M774 960q0 -46 -58 -120q193 -128 193 -374q0 -194 -157 -330t-383 -136h-225v1447q630 -137 630 -487zM369 1182v-237q70 0 156 -27q23 32 23 68q0 24 -11 51q-28 64 -168 145zM369 225q167 0 241 74.5t74 182.5q0 133 -91.5 198.5t-223.5 65.5v-521z" />
    <glyph glyph-name="C" unicode="C" horiz-adv-x="989" 
d="M819 1446l109 -225q-221 0 -394.5 -118.5t-173.5 -356.5q0 -256 163.5 -388.5t420.5 -132.5l-125 -225q-256 0 -470 208t-214 538q0 305 214.5 502.5t469.5 197.5z" />
    <glyph glyph-name="D" unicode="D" horiz-adv-x="990" 
d="M954 477q0 -195 -153 -336t-362 -141h-295v1446q810 -353 810 -969zM369 1075v-854q28 -8 59 -8q81 0 174 62q127 82 127 254q0 274 -360 546z" />
    <glyph glyph-name="E" unicode="E" horiz-adv-x="810" 
d="M751 1440v-225h-382v-256q164 121 273 121v-194q-273 -125 -273 -288v-373h405v-225h-630v1440h607z" />
    <glyph glyph-name="F" unicode="F" horiz-adv-x="787" 
d="M751 1440v-225h-382v-256q164 121 273 121v-194q-273 -125 -273 -288v-598h-225v1440h607z" />
    <glyph glyph-name="G" unicode="G" horiz-adv-x="1001" 
d="M623 1440h218v-225h-199q-118 0 -228 -75.5t-110 -216.5q0 -314 396 -585v472h-250v225h461v-1035q-821 311 -821 923q0 216 155.5 366.5t377.5 150.5z" />
    <glyph glyph-name="H" unicode="H" horiz-adv-x="945" 
d="M855 1440v-1440h-225v686q0 124 -135 124q-180 0 -180 -139v-671h-225v1440h225v-474q70 69 164 69q93 0 151 -54v459h225z" />
    <glyph glyph-name="I" unicode="I" horiz-adv-x="585" 
d="M405 1440v-1440h-225v1440h225z" />
    <glyph glyph-name="J" unicode="J" horiz-adv-x="585" 
d="M450 1440v-1244q0 -326 -191 -482l-214 105q180 159 180 424v1197h225z" />
    <glyph glyph-name="K" unicode="K" horiz-adv-x="990" 
d="M369 895l350 590l203 -81l-257 -471q289 -155 289 -730v-203h-225v148q0 548 -360 735v-883h-225v1440h225v-545z" />
    <glyph glyph-name="L" unicode="L" horiz-adv-x="817" 
d="M369 1440v-1215h412v-225h-637v1440h225z" />
    <glyph glyph-name="M" unicode="M" horiz-adv-x="1440" 
d="M681 902q160 338 373 606l296 -1508h-234l-164 888q-84 -67 -240 -546h-31l-241 545q-125 -294 -125 -887h-225q0 718 283 1508q218 -489 308 -606z" />
    <glyph glyph-name="N" unicode="N" horiz-adv-x="990" 
d="M675 1229v211h225v-1440h-225v700q0 358 -360 482v-1182h-225v1440q350 0 585 -211z" />
    <glyph glyph-name="O" unicode="O" horiz-adv-x="1642" 
d="M1182.5 372q147.5 148 147.5 353q0 207 -147.5 355t-358.5 148q-205 0 -353 -148t-148 -355q0 -205 148 -353t353 -148q211 0 358.5 148zM821 -9q-303 0 -517 214t-214 517t214 517t517 214t517 -214t214 -517t-214 -517t-517 -214z" />
    <glyph glyph-name="P" unicode="P" horiz-adv-x="855" 
d="M819 889q0 -220 -108 -282t-178 -62h-164v-545h-225v1458q675 -297 675 -569zM369 1111v-341q47 -3 83 -3q72 0 100 12q42 18 42 110q0 113 -225 222z" />
    <glyph glyph-name="Q" unicode="Q" horiz-adv-x="1642" 
d="M782 221q-31 19 -58 36l93 198q156 -94 277 -156q45 27 89 70q147 148 147 354t-147.5 353.5t-358.5 147.5q-205 0 -353 -147.5t-148 -353.5t148 -354q132 -132 311 -148zM1334 198q74 -23 125 -23v-230q-121 0 -343 101q-136 -58 -295 -58q-303 0 -517 214t-214 517
t214 517t517 214t517 -214t214 -517t-214 -517z" />
    <glyph glyph-name="R" unicode="R" horiz-adv-x="1093" 
d="M819 873q0 -243 -191 -296l429 -577h-276l-412 540v-540h-225v1464q675 -294 675 -591zM369 1071v-313q164 0 194.5 19.5t30.5 95.5q0 85 -225 198z" />
    <glyph glyph-name="S" unicode="S" horiz-adv-x="1056" 
d="M1027 1462l74 -206q-132 0 -216 -81.5t-84 -319.5q0 -443 -137.5 -649t-374.5 -206q-129 0 -226 94l86 186q77 -55 124 -55q132 0 217.5 132.5t85.5 466.5q0 358 132.5 498t318.5 140z" />
    <glyph glyph-name="T" unicode="T" horiz-adv-x="729" 
d="M684 1440v-225h-211v-1215h-225v1215h-203v225h639z" />
    <glyph glyph-name="U" unicode="U" horiz-adv-x="990" 
d="M900 1440v-1032q0 -170 -119 -289t-286 -119q-166 0 -285.5 119t-119.5 286v1035h225v-1035q0 -75 52.5 -127.5t127.5 -52.5t127.5 52.5t52.5 127.5v1035h225z" />
    <glyph glyph-name="V" unicode="V" horiz-adv-x="907" 
d="M889 1440l-389 -1440h-31l-451 1440h254l194 -705l187 705h236z" />
    <glyph glyph-name="W" unicode="W" horiz-adv-x="1319" 
d="M1301 1440l-250 -1470q-222 330 -411 703l-280 -700q-342 702 -342 1467h226q22 -409 116 -860l265 684q192 -467 307 -669l136 845h233z" />
    <glyph glyph-name="X" unicode="X" horiz-adv-x="1148" 
d="M900 1446v-217l-186 -171v-16q389 -479 389 -1042h-234q0 521 -326 871q-265 -397 -265 -871h-233q0 548 327 1026v16l-203 171v218q94 0 374 -218q253 233 357 233z" />
    <glyph glyph-name="Y" unicode="Y" horiz-adv-x="1031" 
d="M18 1440h230q135 -274 268 -367h15q148 93 265 367h217q0 -196 -373 -585v-855h-233v855q-389 389 -389 585z" />
    <glyph glyph-name="Z" unicode="Z" horiz-adv-x="932" 
d="M842 1438q0 -692 -381 -1205h381v-233h-824q575 727 575 1229h-404v209h653z" />
    <glyph glyph-name="bracketleft" unicode="[" horiz-adv-x="660" 
d="M200 -200v1694h360v-161h-180v-1372h180v-161h-360z" />
    <glyph glyph-name="backslash" unicode="\" horiz-adv-x="936" 
d="M918 0h-180l-720 1440h180z" />
    <glyph glyph-name="bracketright" unicode="]" horiz-adv-x="660" 
d="M100 -200v161h180v1372h-180v161h360v-1694h-360z" />
    <glyph glyph-name="asciicircum" unicode="^" horiz-adv-x="837" 
d="M492 1441l255 -337l-169 -32l-159 211l-161 -211l-168 32l254 337h148z" />
    <glyph glyph-name="underscore" unicode="_" horiz-adv-x="1024" 
d="M0 -150h1024v-90h-1024v90z" />
    <glyph glyph-name="grave" unicode="`" horiz-adv-x="630" 
d="M90 1164l180 180l270 -360z" />
    <glyph glyph-name="a" unicode="a" 
d="M598 266.5q62 62.5 62 152.5q0 89 -62 151t-151 62q-90 0 -152 -62t-62 -151q0 -90 62 -152.5t152 -62.5q89 0 151 62.5zM878 248q0 -137 90 -246h-202q-31 0 -71 62q-108 -77 -248 -77q-179 0 -305.5 126t-126.5 306q0 178 126.5 304.5t305.5 126.5q178 0 304.5 -126.5
t126.5 -304.5v-171z" />
    <glyph glyph-name="b" unicode="b" 
d="M375 565q-62 -62 -62 -151q0 -90 62 -152t152 -62q89 0 151 62t62 152q0 89 -62 151t-151 62q-90 0 -152 -62zM95 1440h233v-645q124 50 199 50q178 0 304.5 -126.5t126.5 -304.5q0 -179 -126.5 -305.5t-304.5 -126.5q-179 0 -305.5 126.5t-126.5 305.5v1026z" />
    <glyph glyph-name="c" unicode="c" horiz-adv-x="635" 
d="M447 -23q-179 0 -305.5 126t-126.5 306q0 178 126.5 304.5t305.5 126.5q53 0 102 -12l61 -281l-12 13q-62 62 -151 62q-90 0 -152 -62t-62 -151q0 -90 62 -152.5t152 -62.5q89 0 151 62q12 12 22 25l-72 -294q-49 -10 -101 -10z" />
    <glyph glyph-name="d" unicode="d" 
d="M447 630q-90 0 -152 -62t-62 -151q0 -90 62 -152t152 -62q89 0 151 62t62 152q0 89 -62 151t-151 62zM878 417q0 -237 90 -401l-210 -35l-36 89q-97 -85 -275 -85q-179 0 -305.5 126.5t-126.5 305.5t126.5 305t305.5 126q74 0 198 -51v643h233v-1023z" />
    <glyph glyph-name="e" unicode="e" horiz-adv-x="851" 
d="M454 857q179 0 280.5 -78t101.5 -136l-502 -389q43 -39 136 -39q90 0 229 82v-233q-66 -82 -245 -82q-182 0 -310.5 128.5t-128.5 310.5q0 179 128.5 307.5t310.5 128.5zM248 410l300 229q-51 12 -78 12q-93 0 -157.5 -64.5t-64.5 -176.5z" />
    <glyph glyph-name="f" unicode="f" horiz-adv-x="499" 
d="M316 1384l153 -155q-156 -175 -156 -334v-40h109v-218h-109v-637h-218v895q0 248 221 489z" />
    <glyph glyph-name="g" unicode="g" 
d="M447 623q-90 0 -152 -62t-62 -152q0 -89 62 -151.5t152 -62.5q89 0 151 62.5t62 151.5q0 90 -62 152t-151 62zM652 28q-92 -50 -205 -50q-179 0 -305.5 126t-126.5 305t126.5 305.5t305.5 126.5q140 0 248 -78q40 62 71 62h202q-90 -109 -90 -244v-572
q0 -179 -130 -305.5t-309 -126.5t-272 72t-93 114l182 125q31 -31 62.5 -62t120.5 -31t151 62t62 152v19z" />
    <glyph glyph-name="h" unicode="h" horiz-adv-x="843" 
d="M313 1438v-646q47 19 109 19q326 0 326 -406q0 -225 90 -405h-225q-82 135 -82 470q0 47 -32 78t-78 31q-45 0 -76.5 -32t-31.5 -78v-469h-218v1438h218z" />
    <glyph glyph-name="i" unicode="i" horiz-adv-x="408" 
d="M313 1170v-237h-218v237h218zM313 810v-810h-218v810h218z" />
    <glyph glyph-name="j" unicode="j" horiz-adv-x="411" 
d="M316 810v-793q0 -268 -186 -373l-125 140q94 108 94 217v809h217zM316 1170v-233h-217v233h217z" />
    <glyph glyph-name="k" unicode="k" horiz-adv-x="745" 
d="M313 1438v-831q139 100 139 233h219q0 -160 -109 -265q178 -186 178 -575h-217q0 350 -210 545v-545h-218v1438h218z" />
    <glyph glyph-name="l" unicode="l" horiz-adv-x="498" 
d="M358 1438v-1438h-218v1438h218z" />
    <glyph glyph-name="m" unicode="m" horiz-adv-x="1279" 
d="M422 619q-55 0 -82 -31t-27 -78v-510h-218v552q0 118 84 201.5t243 83.5q112 0 201 -98l4 4q96 96 233 96q135 0 229.5 -97.5t94.5 -227.5v-154q0 -180 90 -360h-218q-90 135 -90 360v152q0 45 -31 77t-76 32q-46 0 -78.5 -32t-32.5 -77v-152q0 -180 90 -360h-217
q-90 135 -90 360v152q0 45 -21.5 76t-87.5 31z" />
    <glyph glyph-name="n" unicode="n" horiz-adv-x="843" 
d="M424 839q135 0 229.5 -97.5t94.5 -227.5v-154q0 -180 90 -360h-217q-90 135 -90 360v152q0 45 -31 77t-76 32q-46 0 -78.5 -32t-32.5 -77v-152q0 -180 90 -360h-218q-90 135 -90 360v152q0 133 96.5 230t232.5 97z" />
    <glyph glyph-name="o" unicode="o" horiz-adv-x="905" 
d="M594 267.5q58 58.5 58 143.5q0 86 -58 144t-143 58q-82 0 -142.5 -58t-60.5 -144q0 -85 60.5 -143.5t142.5 -58.5q85 0 143 58.5zM454 -24q-182 0 -310.5 128t-128.5 311q0 179 128.5 307.5t310.5 128.5q179 0 307.5 -128.5t128.5 -307.5q0 -183 -128.5 -311t-307.5 -128
z" />
    <glyph glyph-name="p" unicode="p" horiz-adv-x="988" 
d="M541 201q90 0 152.5 62.5t62.5 151.5t-62.5 151.5t-152.5 62.5q-89 0 -151 -62.5t-62 -151.5t62 -151.5t151 -62.5zM110 450q0 180 -105 360l214 41l46 -90q97 86 276 86q180 0 306 -126.5t126 -305.5t-126 -305t-306 -126q-85 0 -198 50v-457h-233v873z" />
    <glyph glyph-name="q" unicode="q" 
d="M598 255.5q62 62.5 62 151.5t-62 151.5t-151 62.5q-90 0 -152 -62.5t-62 -151.5t62 -151.5t152 -62.5q89 0 151 62.5zM878 -423h-233v449q-124 -50 -198 -50q-179 0 -305.5 126t-126.5 305t126.5 305.5t305.5 126.5q178 0 304.5 -126.5t126.5 -305.5v-830z" />
    <glyph glyph-name="r" unicode="r" horiz-adv-x="499" 
d="M469 871v-187q-39 0 -97.5 -60.5t-58.5 -125.5v-498h-218v840h218v-47q70 78 156 78z" />
    <glyph glyph-name="s" unicode="s" horiz-adv-x="492" 
d="M417 872v-186q-77 -55 -77 -109q0 -71 38.5 -125t38.5 -155q0 -191 -218 -327l-124 171q109 101 109 171q0 78 -31 155.5t-31 139.5q0 114 79.5 189.5t215.5 75.5z" />
    <glyph glyph-name="t" unicode="t" horiz-adv-x="509" 
d="M313 1350v-495h171v-218h-171v-248q0 -198 156 -389h-218q-156 117 -156 389v961h218z" />
    <glyph glyph-name="u" unicode="u" horiz-adv-x="768" 
d="M313 809v-520q0 -30 20.5 -50.5t50.5 -20.5q29 0 50 20.5t21 50.5v520l218 1v-552q0 -106 -85 -182t-205 -76t-204 76t-84 181v552h218z" />
    <glyph glyph-name="v" unicode="v" horiz-adv-x="684" 
d="M684 810l-280 -843l-404 843h248l116 -272l87 272h233z" />
    <glyph glyph-name="w" unicode="w" horiz-adv-x="1089" 
d="M863 813h226q0 -62 -161.5 -406.5t-243.5 -433.5l-171 327h-15l-171 -327l-327 840h236l109 -295q153 233 153 295h15q27 -4 195 -311q155 249 155 311z" />
    <glyph glyph-name="x" unicode="x" horiz-adv-x="745" 
d="M509 0q-59 153 -156 271q-75 -116 -125 -271h-213q67 200 192 422q-100 106 -190 159l-2 229q86 0 335 -229q226 229 319 229v-214q-82 -60 -169 -171q145 -216 230 -425h-221z" />
    <glyph glyph-name="y" unicode="y" horiz-adv-x="809" 
d="M577 810h217q-91 -157 -91 -405q0 -36 1 -74v-347q0 -145 -100 -249t-245 -104t-244.5 105t-99.5 206h233q0 -24 35.5 -58.5t85.5 -34.5t84 35t34 85v48q-65 -17 -110 -17q-134 0 -230 96.5t-96 231.5v482h218v-483q0 -45 32 -77t77 -32q46 0 77.5 33t31.5 76
q0 348 90 483z" />
    <glyph glyph-name="z" unicode="z" horiz-adv-x="637" 
d="M612 810q0 -330 -183 -592h178v-218h-602q305 417 311 592h-171v218h467z" />
    <glyph glyph-name="braceleft" unicode="{" horiz-adv-x="840" 
d="M380 100q0 299 -180 544q180 245 180 545q0 299 360 299v-161q-180 0 -180 -259t-180 -424q180 -165 180 -424t180 -259v-161q-360 0 -360 300z" />
    <glyph glyph-name="bar" unicode="|" horiz-adv-x="540" 
d="M180 -420v1860h180v-1860h-180z" />
    <glyph glyph-name="braceright" unicode="}" horiz-adv-x="840" 
d="M100 -200v161q180 0 180 259t180 424q-180 165 -180 424t-180 259v161q360 0 360 -299q0 -300 180 -545q-180 -245 -180 -544q0 -300 -360 -300z" />
    <glyph glyph-name="asciitilde" unicode="~" horiz-adv-x="900" 
d="M810 810v-225q-90 -90 -180 -90t-180 45t-180 45t-180 -90v225q90 90 180 90t180 -45t180 -45t180 90z" />
    <glyph glyph-name="exclamdown" unicode="&#xa1;" horiz-adv-x="593" 
d="M180 -1v1011h233v-1011h-233zM180 1150v249h233v-249h-233z" />
    <glyph glyph-name="cent" unicode="&#xa2;" horiz-adv-x="725" 
d="M541 1120v-109h74l20 -233q-32 15 -125 15q-187 -39 -187 -210q0 -186 218 -241q70 0 94 23v-241h-94v-124h-186v171q-265 129 -265 412q0 241 265 412v125h186z" />
    <glyph glyph-name="sterling" unicode="&#xa3;" horiz-adv-x="1160" 
d="M603 1415q221 0 358 -171l-155 -124q-101 93 -203 93q-202 0 -202 -187q0 -202 113 -202h463v-202h-342q55 -178 55 -301q0 -48 -9 -88h389v-233h-965v233h188q186 0 186 129q0 128 -109 245h-280v217h148q-54 128 -54 202q0 389 419 389z" />
    <glyph glyph-name="currency" unicode="&#xa4;" horiz-adv-x="1080" 
d="M653.5 513q46.5 47 46.5 115q0 69 -46.5 115.5t-114.5 46.5q-66 0 -114 -46.5t-48 -115.5q0 -68 48 -115t114 -47q68 0 114.5 47zM716 327q-78 -47 -175 -47q-99 0 -178 47l-78 -79l-127 127l78 79q-46 79 -46 178q0 96 46 174l-78 79l127 127l78 -79q79 47 178 47
q97 0 175 -47l78 79l128 -127l-79 -79q47 -78 47 -174q0 -99 -47 -177l79 -80l-128 -127z" />
    <glyph glyph-name="yen" unicode="&#xa5;" horiz-adv-x="936" 
d="M573 590v-590h-198v590h-181v90h181v90h-181v90h177q-326 386 -326 580h195q116 -274 228 -367h13q126 93 225 367h185q0 -194 -313 -580h165v-90h-170v-90h170v-90h-170z" />
    <glyph glyph-name="brokenbar" unicode="&#xa6;" horiz-adv-x="540" 
d="M180 666v774h180v-774h-180zM180 -423v774h180v-774h-180z" />
    <glyph glyph-name="section" unicode="&#xa7;" horiz-adv-x="1176" 
d="M910 380q0 -234 -300 -379q1 -23 1 -45q0 -101 -26 -173q-74 -206 -310 -206q-129 0 -255 93l28 186q95 -54 142 -54q87 0 127 77t40 221q0 142 -45.5 284t-45.5 270q0 152 92 257.5t208 121.5q-1 23 -1 45q0 151 95 265t241 114q129 0 255 -93l-28 -186q-95 54 -142 54
q-82 0 -124.5 -66t-42.5 -232q0 -142 45.5 -290t45.5 -264zM574 243q104 86 104 212q0 68 -28 157.5t-48 178.5q-104 -54 -104 -212q0 -59 33 -153t43 -183z" />
    <glyph glyph-name="dieresis" unicode="&#xa8;" horiz-adv-x="816" 
d="M378 1299v-229h-198v229h198zM726 1298v-229h-198v229h198z" />
    <glyph glyph-name="copyright" unicode="&#xa9;" horiz-adv-x="1622" 
d="M804 1180q-227 0 -388 -160t-161 -386q0 -227 161 -387t388 -160t388.5 160t161.5 387q0 226 -161.5 386t-388.5 160zM1321 1141q211 -210 211 -507t-211 -507.5t-510 -210.5t-510 210.5t-211 507.5t211 507t510 210t510 -210zM950 1060l76 -111q-153 0 -275.5 -83.5
t-122.5 -225.5q0 -161 116 -244t293 -83l-87 -121q-166 0 -319 128t-153 320q0 180 149 300t323 120z" />
    <glyph glyph-name="ordfeminine" unicode="&#xaa;" horiz-adv-x="837" 
d="M488 1090q41 37 41 91t-41 91t-99 37q-60 0 -101 -37t-41 -91t41 -91t101 -37q58 0 99 37zM673 1079q0 -82 60 -148h-134q-20 0 -46 38q-72 -47 -164 -47q-119 0 -202.5 76t-83.5 183t83.5 183t202.5 76q117 0 200.5 -76t83.5 -183v-102zM100 832h637v-90h-637v90z" />
    <glyph glyph-name="guillemotleft" unicode="&#xab;" horiz-adv-x="951" 
d="M90 653l374 282l36 -187l-235 -178l235 -177l-36 -188l-374 283v165zM450 653l374 282l36 -187l-235 -178l235 -177l-36 -188l-374 283v165z" />
    <glyph glyph-name="logicalnot" unicode="&#xac;" horiz-adv-x="1080" 
d="M90 720h900v-540h-180v360h-720v180z" />
    <glyph glyph-name="registered" unicode="&#xae;" horiz-adv-x="1622" 
d="M804 1180q-227 0 -388 -160t-161 -386q0 -227 161 -387t388 -160t388.5 160t161.5 387q0 226 -161.5 386t-388.5 160zM1321 1141q211 -210 211 -507t-211 -507.5t-510 -210.5t-510 210.5t-211 507.5t211 507t510 210t510 -210zM1004 746q0 -131 -124 -162l279 -320h-175
l-269 305v-305h-156v815q207 -48 326 -145.5t119 -187.5zM715 899v-208q103 0 124 11t21 44q0 92 -145 153z" />
    <glyph glyph-name="macron" unicode="&#xaf;" horiz-adv-x="885" 
d="M785 1261v-153h-685v153h685z" />
    <glyph glyph-name="degree" unicode="&#xb0;" horiz-adv-x="720" 
d="M360 915q-112 0 -191 79.5t-79 190.5q0 112 79 191t191 79t191 -79t79 -191q0 -111 -79 -190.5t-191 -79.5zM455.5 1090q39.5 40 39.5 95q0 56 -39.5 95.5t-95.5 39.5t-95.5 -39.5t-39.5 -95.5q0 -55 39.5 -95t95.5 -40t95.5 40z" />
    <glyph glyph-name="plusminus" unicode="&#xb1;" horiz-adv-x="1080" 
d="M450 180v360h-360v180h360v360h180v-360h360v-180h-360v-360h360v-180h-900v180h360z" />
    <glyph glyph-name="uni00B2" unicode="&#xb2;" horiz-adv-x="637" 
d="M425 1409q0 40 -32 68t-74 28q-44 0 -75 -28t-31 -68q0 -28 29 -78l-82 -72q-70 52 -70 145q0 88 66.5 149t162.5 61q95 0 161.5 -61t66.5 -149q0 -172 -233 -387h225v-116h-432v89q144 114 231 221t87 198z" />
    <glyph glyph-name="uni00B3" unicode="&#xb3;" horiz-adv-x="635" 
d="M470 1618q22 -19 22 -89q0 -91 -72 -183q125 -86 125 -212q0 -94 -71.5 -163t-154.5 -69q-104 0 -166.5 56t-62.5 91l93 54v-2q0 -25 39 -55q42 -32 97 -32q37 0 75 35t38 85q0 54 -41.5 95t-109.5 41h-60v101q68 0 111 37.5t43 97.5h-200v112h295z" />
    <glyph glyph-name="acute" unicode="&#xb4;" horiz-adv-x="630" 
d="M90 984l270 360l180 -180z" />
    <glyph glyph-name="mu" unicode="&#xb5;" horiz-adv-x="848" 
d="M135 809h218v-520q0 -30 20.5 -50.5t50.5 -20.5q29 0 50 20.5t21 50.5v520l218 1v-552q0 -106 -85 -182t-205 -76q-40 0 -76 8v-431h-212v1232z" />
    <glyph glyph-name="paragraph" unicode="&#xb6;" horiz-adv-x="1214" 
d="M1014 1440v-1440h-168v1220h-129v-1220h-183v577h-3q-178 0 -304.5 126.5t-126.5 304.5q0 179 126.5 305.5t304.5 126.5h483z" />
    <glyph glyph-name="periodcentered" unicode="&#xb7;" horiz-adv-x="512" 
d="M355 835v-229h-198v229h198z" />
    <glyph glyph-name="periodcentered" unicode="&#x2219;" horiz-adv-x="512" 
d="M355 835v-229h-198v229h198z" />
    <glyph glyph-name="cedilla" unicode="&#xb8;" horiz-adv-x="529" 
d="M361 89v-90q0 -149 -64 -224t-194 -75v70q85 0 104 57t19 172v90h135z" />
    <glyph glyph-name="uni00B9" unicode="&#xb9;" horiz-adv-x="449" 
d="M359 1622v-717h-168v470q-33 -36 -101 -47v126q101 79 123 168h146z" />
    <glyph glyph-name="ordmasculine" unicode="&#xba;" horiz-adv-x="777" 
d="M483.5 1090q38.5 35 38.5 86q0 52 -38.5 86.5t-94.5 34.5q-54 0 -94 -34.5t-40 -86.5q0 -51 40 -86t94 -35q56 0 94.5 35zM390 915q-121 0 -205.5 77t-84.5 187q0 107 84.5 184t205.5 77q118 0 202.5 -77t84.5 -184q0 -110 -84.5 -187t-202.5 -77zM106 825h565v-90h-565
v90z" />
    <glyph glyph-name="guillemotright" unicode="&#xbb;" horiz-adv-x="951" 
d="M500 488l-374 -283l-36 188l235 177l-235 178l36 187l374 -282v-165zM860 488l-374 -283l-36 188l235 177l-235 178l36 187l374 -282v-165z" />
    <glyph glyph-name="onequarter" unicode="&#xbc;" horiz-adv-x="1225" 
d="M900 1440h180l-720 -1440h-180zM1104 810v-472h31v-117h-31v-131h-115v131h-269q0 360 384 589zM851 346h138v231q-96 -64 -138 -231zM359 1346v-716h-168v470q-33 -36 -101 -48v127q101 78 123 167h146z" />
    <glyph glyph-name="onehalf" unicode="&#xbd;" horiz-adv-x="1349" 
d="M359 1346v-716h-168v470q-33 -36 -101 -48v127q101 78 123 167h146zM899 1440h180l-720 -1440h-180zM1137 598q0 40 -32 68t-74 28q-45 0 -75.5 -28t-30.5 -68q0 -28 29 -78l-82 -72q-70 52 -70 145q0 88 66.5 149t162.5 61q95 0 161.5 -61t66.5 -149q0 -172 -233 -387
h225v-116h-432v89q144 114 231 221t87 198z" />
    <glyph glyph-name="threequarters" unicode="&#xbe;" horiz-adv-x="1238" 
d="M968 1440h180l-720 -1440h-180zM1110 810v-472h30v-117h-30v-131h-115v131h-270q0 360 385 589zM856 346h139v231q-97 -64 -139 -231zM470 1346q22 -18 22 -89q0 -91 -72 -183q125 -86 125 -212q0 -94 -71.5 -163t-154.5 -69q-104 0 -166.5 56.5t-62.5 90.5l93 55v-3
q0 -25 39 -55q42 -31 97 -31q37 0 75 34.5t38 84.5q0 54 -41.5 95t-109.5 41h-60v101q68 0 111 38t43 97h-200v112h295z" />
    <glyph glyph-name="questiondown" unicode="&#xbf;" horiz-adv-x="1051" 
d="M572 -150q-217 0 -349.5 111t-132.5 310q0 248 233 335.5t233 140.5q0 52 -42 52q-43 0 -50 -31l-141 140q90 77 249 77q202 -50 202 -233q0 -178 -218 -260t-218 -199q0 -120 63 -165t171 -45q90 0 249 109l140 -171q-152 -171 -389 -171zM417 1098v272h233v-272h-233z
" />
    <glyph glyph-name="Agrave" unicode="&#xc0;" horiz-adv-x="1035" 
d="M945 1478v-1478h-225v585h-304q-101 -252 -101 -585h-225q0 1034 855 1478zM528 810h192v238q-143 -134 -192 -238zM495 1794l180 180l270 -360z" />
    <glyph glyph-name="Aacute" unicode="&#xc1;" horiz-adv-x="1035" 
d="M945 1478v-1478h-225v585h-304q-101 -252 -101 -585h-225q0 1034 855 1478zM528 810h192v238q-143 -134 -192 -238zM495 1614l270 360l180 -180z" />
    <glyph glyph-name="Acircumflex" unicode="&#xc2;" horiz-adv-x="1035" 
d="M945 1478v-1478h-225v585h-304q-101 -252 -101 -585h-225q0 1034 855 1478zM528 810h192v238q-143 -134 -192 -238zM619 1745l-327 -131l300 400h53l300 -400z" />
    <glyph glyph-name="Atilde" unicode="&#xc3;" horiz-adv-x="1035" 
d="M945 1478v-1478h-225v585h-304q-101 -252 -101 -585h-225q0 1034 855 1478zM528 810h192v238q-143 -134 -192 -238zM945 1925v-158q-69 -63 -138 -63t-138.5 31.5t-138.5 31.5t-138 -63v158q69 63 138 63t138.5 -31.5t138.5 -31.5t138 63z" />
    <glyph glyph-name="Adieresis" unicode="&#xc4;" horiz-adv-x="1035" 
d="M945 1478v-1478h-225v585h-304q-101 -252 -101 -585h-225q0 1034 855 1478zM528 810h192v238q-143 -134 -192 -238zM597 1929v-229h-198v229h198zM945 1928v-229h-198v229h198z" />
    <glyph glyph-name="Aring" unicode="&#xc5;" horiz-adv-x="1035" 
d="M745 1615q-83 0 -141.5 58.5t-58.5 141.5t58.5 141.5t141.5 58.5t141.5 -58.5t58.5 -141.5t-58.5 -141.5t-141.5 -58.5zM815.5 1744.5q29.5 29.5 29.5 70.5t-29.5 70.5t-70.5 29.5t-70.5 -29.5t-29.5 -70.5t29.5 -70.5t70.5 -29.5t70.5 29.5zM945 1478v-1478h-225v585
h-304q-101 -252 -101 -585h-225q0 1034 855 1478zM528 810h192v238q-143 -134 -192 -238z" />
    <glyph glyph-name="AE" unicode="&#xc6;" horiz-adv-x="1601" 
d="M587 900h213v264q-159 -149 -213 -264zM1475 1600v-250h-424v-284q182 134 303 134v-216q-303 -139 -303 -320v-414h450v-250h-701v650h-338q-112 -280 -112 -650h-250q0 987 701 1490v110h674z" />
    <glyph glyph-name="Ccedilla" unicode="&#xc7;" horiz-adv-x="1099" 
d="M593 72q-107 56 -205 152q-238 231 -238 598q0 339 238.5 558.5t521.5 219.5l121 -250q-246 0 -438.5 -132t-192.5 -396q0 -285 181.5 -432t467.5 -147l-139 -250q-86 0 -167 21v-22q0 -166 -71.5 -249t-215.5 -83v77q94 0 115.5 63.5t21.5 191.5v80z" />
    <glyph glyph-name="Egrave" unicode="&#xc8;" horiz-adv-x="810" 
d="M751 1440v-225h-382v-256q164 121 273 121v-194q-273 -125 -273 -288v-373h405v-225h-630v1440h607zM159 1794l180 180l270 -360z" />
    <glyph glyph-name="Eacute" unicode="&#xc9;" horiz-adv-x="810" 
d="M751 1440v-225h-382v-256q164 121 273 121v-194q-273 -125 -273 -288v-373h405v-225h-630v1440h607zM309 1614l270 360l180 -180z" />
    <glyph glyph-name="Ecircumflex" unicode="&#xca;" horiz-adv-x="810" 
d="M752 1440v-225h-382v-256q164 121 273 121v-194q-273 -125 -273 -288v-373h405v-225h-630v1440h607zM460 1745l-327 -131l300 400h53l300 -400z" />
    <glyph glyph-name="Edieresis" unicode="&#xcb;" horiz-adv-x="810" 
d="M751 1440v-225h-382v-256q164 121 273 121v-194q-273 -125 -273 -288v-373h405v-225h-630v1440h607zM384 1929v-229h-198v229h198zM732 1928v-229h-198v229h198z" />
    <glyph glyph-name="Igrave" unicode="&#xcc;" horiz-adv-x="585" 
d="M405 1440v-1440h-225v1440h225zM-7 1794l180 180l270 -360z" />
    <glyph glyph-name="Iacute" unicode="&#xcd;" horiz-adv-x="585" 
d="M405 1440v-1440h-225v1440h225zM143 1614l270 360l180 -180z" />
    <glyph glyph-name="Icircumflex" unicode="&#xce;" horiz-adv-x="585" 
d="M405 1440v-1440h-225v1440h225zM293 1745l-327 -131l300 400h53l300 -400z" />
    <glyph glyph-name="Idieresis" unicode="&#xcf;" horiz-adv-x="585" 
d="M405 1440v-1440h-225v1440h225zM217 1929v-229h-198v229h198zM565 1928v-229h-198v229h198z" />
    <glyph glyph-name="Eth" unicode="&#xd0;" horiz-adv-x="1100" 
d="M410 501v-255q31 -9 65 -9q90 0 194 68q141 92 141 283q0 304 -400 606v-593h180v-100h-180zM160 601v1006q900 -393 900 -1077q0 -217 -170 -373.5t-402 -156.5h-328v501h-100v100h100z" />
    <glyph glyph-name="Ntilde" unicode="&#xd1;" horiz-adv-x="990" 
d="M675 1229v211h225v-1440h-225v700q0 358 -360 482v-1182h-225v1440q350 0 585 -211zM772 1925v-158q-69 -63 -138 -63t-138.5 31.5t-138.5 31.5t-138 -63v158q69 63 138 63t138.5 -31.5t138.5 -31.5t138 63z" />
    <glyph glyph-name="Ograve" unicode="&#xd2;" horiz-adv-x="1642" 
d="M1182.5 372q147.5 148 147.5 353q0 207 -147.5 355t-358.5 148q-205 0 -353 -148t-148 -355q0 -205 148 -353t353 -148q211 0 358.5 148zM821 -9q-303 0 -517 214t-214 517t214 517t517 214t517 -214t214 -517t-214 -517t-517 -214zM521 1794l180 180l270 -360z" />
    <glyph glyph-name="Oacute" unicode="&#xd3;" horiz-adv-x="1642" 
d="M1182.5 372q147.5 148 147.5 353q0 207 -147.5 355t-358.5 148q-205 0 -353 -148t-148 -355q0 -205 148 -353t353 -148q211 0 358.5 148zM821 -9q-303 0 -517 214t-214 517t214 517t517 214t517 -214t214 -517t-214 -517t-517 -214zM671 1614l270 360l180 -180z" />
    <glyph glyph-name="Ocircumflex" unicode="&#xd4;" horiz-adv-x="1642" 
d="M1182.5 372q147.5 148 147.5 353q0 207 -147.5 355t-358.5 148q-205 0 -353 -148t-148 -355q0 -205 148 -353t353 -148q211 0 358.5 148zM821 -9q-303 0 -517 214t-214 517t214 517t517 214t517 -214t214 -517t-214 -517t-517 -214zM821 1745l-327 -131l300 400h53
l300 -400z" />
    <glyph glyph-name="Otilde" unicode="&#xd5;" horiz-adv-x="1642" 
d="M1182.5 372q147.5 148 147.5 353q0 207 -147.5 355t-358.5 148q-205 0 -353 -148t-148 -355q0 -205 148 -353t353 -148q211 0 358.5 148zM821 -9q-303 0 -517 214t-214 517t214 517t517 214t517 -214t214 -517t-214 -517t-517 -214zM1097 1925v-158q-69 -63 -138 -63
t-138.5 31.5t-138.5 31.5t-138 -63v158q69 63 138 63t138.5 -31.5t138.5 -31.5t138 63z" />
    <glyph glyph-name="Odieresis" unicode="&#xd6;" horiz-adv-x="1642" 
d="M1182.5 372q147.5 148 147.5 353q0 207 -147.5 355t-358.5 148q-205 0 -353 -148t-148 -355q0 -205 148 -353t353 -148q211 0 358.5 148zM821 -9q-303 0 -517 214t-214 517t214 517t517 214t517 -214t214 -517t-214 -517t-517 -214zM746 1929v-229h-198v229h198z
M1094 1928v-229h-198v229h198z" />
    <glyph glyph-name="multiply" unicode="&#xd7;" horiz-adv-x="1200" 
d="M176 417l283 283l-283 283l141 141l283 -283l283 283l142 -141l-283 -283l283 -283l-142 -141l-283 283l-283 -283z" />
    <glyph glyph-name="Oslash" unicode="&#xd8;" horiz-adv-x="1824" 
d="M1338 1496q78 -49 149 -119q237 -238 237 -575t-237.5 -574.5t-574.5 -237.5q-162 0 -300 55l-55 -110h-157l86 173q-78 49 -148 120q-238 237 -238 574t237.5 574.5t574.5 237.5q162 0 300 -55l55 110h157zM602 339l495 991q-87 30 -187 30q-228 0 -392.5 -164.5
t-164.5 -393.5q0 -228 165 -392q40 -41 84 -71zM1223 1267l-496 -992q86 -30 183 -30q234 0 398 164.5t164 392.5q0 229 -164 394q-40 40 -85 71z" />
    <glyph glyph-name="Ugrave" unicode="&#xd9;" horiz-adv-x="990" 
d="M900 1440v-1032q0 -170 -119 -289t-286 -119q-166 0 -285.5 119t-119.5 286v1035h225v-1035q0 -75 52.5 -127.5t127.5 -52.5t127.5 52.5t52.5 127.5v1035h225zM195 1794l180 180l270 -360z" />
    <glyph glyph-name="Uacute" unicode="&#xda;" horiz-adv-x="990" 
d="M900 1440v-1032q0 -170 -119 -289t-286 -119q-166 0 -285.5 119t-119.5 286v1035h225v-1035q0 -75 52.5 -127.5t127.5 -52.5t127.5 52.5t52.5 127.5v1035h225zM345 1614l270 360l180 -180z" />
    <glyph glyph-name="Ucircumflex" unicode="&#xdb;" horiz-adv-x="990" 
d="M900 1440v-1032q0 -170 -119 -289t-286 -119q-166 0 -285.5 119t-119.5 286v1035h225v-1035q0 -75 52.5 -127.5t127.5 -52.5t127.5 52.5t52.5 127.5v1035h225zM496 1745l-327 -131l300 400h53l300 -400z" />
    <glyph glyph-name="Udieresis" unicode="&#xdc;" horiz-adv-x="990" 
d="M900 1440v-1032q0 -170 -119 -289t-286 -119q-166 0 -285.5 119t-119.5 286v1035h225v-1035q0 -75 52.5 -127.5t127.5 -52.5t127.5 52.5t52.5 127.5v1035h225zM420 1929v-229h-198v229h198zM768 1928v-229h-198v229h198z" />
    <glyph glyph-name="Yacute" unicode="&#xdd;" horiz-adv-x="1146" 
d="M20 1440h230q135 -274 268 -367h15q148 93 265 367h217q0 -196 -373 -585v-855h-233v855q-389 389 -389 585zM398 1684l270 360l180 -180z" />
    <glyph glyph-name="Thorn" unicode="&#xde;" horiz-adv-x="855" 
d="M405 1150q450 -239 450 -460t-108 -283t-178 -62h-164v-545h-225v1640h225v-290zM405 570q47 -3 83 -3q72 0 100 12q42 18 42 111q0 112 -225 221v-341z" />
    <glyph glyph-name="germandbls" unicode="&#xdf;" horiz-adv-x="981" 
d="M919 1151q0 -179 -155 -311q202 -175 202 -404q0 -436 -370 -436q-159 0 -159 117q0 116 159 116q152 0 152 233q0 152 -155.5 201t-155.5 157q0 101 203 187q62 29 62 124q-27 102 -156 102q-218 0 -218 -188v-1049h-233v1049q0 389 436 389q388 0 388 -287z" />
    <glyph glyph-name="agrave" unicode="&#xe0;" 
d="M598 266.5q62 62.5 62 152.5q0 89 -62 151t-151 62q-90 0 -152 -62t-62 -151q0 -90 62 -152.5t152 -62.5q89 0 151 62.5zM878 248q0 -137 90 -246h-202q-31 0 -71 62q-108 -77 -248 -77q-179 0 -305.5 126t-126.5 306q0 178 126.5 304.5t305.5 126.5q178 0 304.5 -126.5
t126.5 -304.5v-171zM192 1164l180 180l270 -360z" />
    <glyph glyph-name="aacute" unicode="&#xe1;" 
d="M598 266.5q62 62.5 62 152.5q0 89 -62 151t-151 62q-90 0 -152 -62t-62 -151q0 -90 62 -152.5t152 -62.5q89 0 151 62.5zM878 248q0 -137 90 -246h-202q-31 0 -71 62q-108 -77 -248 -77q-179 0 -305.5 126t-126.5 306q0 178 126.5 304.5t305.5 126.5q178 0 304.5 -126.5
t126.5 -304.5v-171zM342 984l270 360l180 -180z" />
    <glyph glyph-name="acircumflex" unicode="&#xe2;" 
d="M598 266.5q62 62.5 62 152.5q0 89 -62 151t-151 62q-90 0 -152 -62t-62 -151q0 -90 62 -152.5t152 -62.5q89 0 151 62.5zM878 248q0 -137 90 -246h-202q-31 0 -71 62q-108 -77 -248 -77q-179 0 -305.5 126t-126.5 306q0 178 126.5 304.5t305.5 126.5q178 0 304.5 -126.5
t126.5 -304.5v-171zM492 1115l-327 -131l300 400h53l300 -400z" />
    <glyph glyph-name="atilde" unicode="&#xe3;" 
d="M598 266.5q62 62.5 62 152.5q0 89 -62 151t-151 62q-90 0 -152 -62t-62 -151q0 -90 62 -152.5t152 -62.5q89 0 151 62.5zM878 248q0 -137 90 -246h-202q-31 0 -71 62q-108 -77 -248 -77q-179 0 -305.5 126t-126.5 306q0 178 126.5 304.5t305.5 126.5q178 0 304.5 -126.5
t126.5 -304.5v-171zM768 1295v-158q-69 -63 -138 -63t-138.5 31.5t-138.5 31.5t-138 -63v158q69 63 138 63t138.5 -31.5t138.5 -31.5t138 63z" />
    <glyph glyph-name="adieresis" unicode="&#xe4;" 
d="M598 266.5q62 62.5 62 152.5q0 89 -62 151t-151 62q-90 0 -152 -62t-62 -151q0 -90 62 -152.5t152 -62.5q89 0 151 62.5zM878 248q0 -137 90 -246h-202q-31 0 -71 62q-108 -77 -248 -77q-179 0 -305.5 126t-126.5 306q0 178 126.5 304.5t305.5 126.5q178 0 304.5 -126.5
t126.5 -304.5v-171zM416 1299v-229h-198v229h198zM764 1298v-229h-198v229h198z" />
    <glyph glyph-name="aring" unicode="&#xe5;" 
d="M492 985q-83 0 -141.5 58.5t-58.5 141.5t58.5 141.5t141.5 58.5t141.5 -58.5t58.5 -141.5t-58.5 -141.5t-141.5 -58.5zM562.5 1114.5q29.5 29.5 29.5 70.5t-29.5 70.5t-70.5 29.5t-70.5 -29.5t-29.5 -70.5t29.5 -70.5t70.5 -29.5t70.5 29.5zM598 266.5q62 62.5 62 152.5
q0 89 -62 151t-151 62q-90 0 -152 -62t-62 -151q0 -90 62 -152.5t152 -62.5q89 0 151 62.5zM878 248q0 -137 90 -246h-202q-31 0 -71 62q-108 -77 -248 -77q-179 0 -305.5 126t-126.5 306q0 178 126.5 304.5t305.5 126.5q178 0 304.5 -126.5t126.5 -304.5v-171z" />
    <glyph glyph-name="ae" unicode="&#xe6;" horiz-adv-x="1729" 
d="M767 465q0 99 -69 168t-168 69q-100 0 -169 -69t-69 -168q0 -100 69 -169t169 -69q99 0 168 69t69 169zM1026 455l333 255q-56 13 -87 13q-103 0 -174.5 -71.5t-71.5 -196.5zM1105 2h-221q-34 0 -78 69q-121 -86 -276 -86q-199 0 -339.5 140.5t-140.5 339.5
q0 198 140.5 338.5t339.5 140.5q198 0 339 -140q9 -10 17 -19q11 12 24 25q142 142 345 142q199 0 311.5 -86.5t112.5 -151.5l-558 -432q48 -43 151 -43q100 0 255 91v-259q-73 -91 -272 -91q-80 0 -150 22z" />
    <glyph glyph-name="ccedilla" unicode="&#xe7;" horiz-adv-x="635" 
d="M312 -3q-95 30 -170 106q-127 126 -127 306q0 178 126.5 304.5t305.5 126.5q53 0 102 -12l61 -281l-12 13q-62 62 -151 62q-90 0 -152 -62t-62 -151q0 -90 62 -152.5t152 -62.5q89 0 151 62q12 12 22 25l-72 -294q-49 -10 -101 -10q-5 -133 -64 -202q-65 -75 -195 -75v70
q85 0 105 57q19 57 19 170z" />
    <glyph glyph-name="egrave" unicode="&#xe8;" horiz-adv-x="851" 
d="M454 857q179 0 280.5 -78t101.5 -136l-502 -389q43 -39 136 -39q90 0 229 82v-233q-66 -82 -245 -82q-182 0 -310.5 128.5t-128.5 310.5q0 179 128.5 307.5t310.5 128.5zM248 410l300 229q-51 12 -78 12q-93 0 -157.5 -64.5t-64.5 -176.5zM125 1164l180 180l270 -360z
" />
    <glyph glyph-name="eacute" unicode="&#xe9;" horiz-adv-x="851" 
d="M454 857q179 0 280.5 -78t101.5 -136l-502 -389q43 -39 136 -39q90 0 229 82v-233q-66 -82 -245 -82q-182 0 -310.5 128.5t-128.5 310.5q0 179 128.5 307.5t310.5 128.5zM248 410l300 229q-51 12 -78 12q-93 0 -157.5 -64.5t-64.5 -176.5zM275 984l270 360l180 -180z" />
    <glyph glyph-name="ecircumflex" unicode="&#xea;" horiz-adv-x="851" 
d="M454 857q179 0 280.5 -78t101.5 -136l-502 -389q43 -39 136 -39q90 0 229 82v-233q-66 -82 -245 -82q-182 0 -310.5 128.5t-128.5 310.5q0 179 128.5 307.5t310.5 128.5zM248 410l300 229q-51 12 -78 12q-93 0 -157.5 -64.5t-64.5 -176.5zM426 1115l-327 -131l300 400h53
l300 -400z" />
    <glyph glyph-name="edieresis" unicode="&#xeb;" horiz-adv-x="851" 
d="M454 857q179 0 280.5 -78t101.5 -136l-502 -389q43 -39 136 -39q90 0 229 82v-233q-66 -82 -245 -82q-182 0 -310.5 128.5t-128.5 310.5q0 179 128.5 307.5t310.5 128.5zM248 410l300 229q-51 12 -78 12q-93 0 -157.5 -64.5t-64.5 -176.5zM350 1299v-229h-198v229h198z
M698 1298v-229h-198v229h198z" />
    <glyph glyph-name="igrave" unicode="&#xec;" horiz-adv-x="542" 
d="M392 900v-900h-242v900h242zM-29 1164l180 180l270 -360z" />
    <glyph glyph-name="iacute" unicode="&#xed;" horiz-adv-x="542" 
d="M392 900v-900h-242v900h242zM121 984l270 360l180 -180z" />
    <glyph glyph-name="icircumflex" unicode="&#xee;" horiz-adv-x="542" 
d="M393 900v-900h-242v900h242zM272 1115l-327 -131l300 400h53l300 -400z" />
    <glyph glyph-name="idieresis" unicode="&#xef;" horiz-adv-x="542" 
d="M392 900v-900h-242v900h242zM196 1299v-229h-198v229h198zM544 1298v-229h-198v229h198z" />
    <glyph glyph-name="eth" unicode="&#xf0;" horiz-adv-x="1156" 
d="M327 466q0 -104 76 -176t177 -72q105 0 179 72t74 176q0 106 -74 178t-179 72q-101 0 -177 -72t-76 -178zM705 1200q346 -372 361 -737q-4 -191 -144 -327t-342 -136q-203 0 -346.5 138t-143.5 333q0 194 143.5 332t369.5 138q-2 42 -100 142l-290 -167l-69 118l255 147
q-70 63 -165 141l225 109q78 -65 147 -131l226 131l68 -119z" />
    <glyph glyph-name="ntilde" unicode="&#xf1;" horiz-adv-x="843" 
d="M424 839q135 0 229.5 -97.5t94.5 -227.5v-154q0 -180 90 -360h-217q-90 135 -90 360v152q0 45 -31 77t-76 32q-46 0 -78.5 -32t-32.5 -77v-152q0 -180 90 -360h-218q-90 135 -90 360v152q0 133 96.5 230t232.5 97zM743 1295v-158q-69 -63 -138 -63t-138.5 31.5
t-138.5 31.5t-138 -63v158q69 63 138 63t138.5 -31.5t138.5 -31.5t138 63z" />
    <glyph glyph-name="ograve" unicode="&#xf2;" horiz-adv-x="905" 
d="M594 267.5q58 58.5 58 143.5q0 86 -58 144t-143 58q-82 0 -142.5 -58t-60.5 -144q0 -85 60.5 -143.5t142.5 -58.5q85 0 143 58.5zM454 -24q-182 0 -310.5 128t-128.5 311q0 179 128.5 307.5t310.5 128.5q179 0 307.5 -128.5t128.5 -307.5q0 -183 -128.5 -311t-307.5 -128
zM152 1164l180 180l270 -360z" />
    <glyph glyph-name="oacute" unicode="&#xf3;" horiz-adv-x="905" 
d="M594 267.5q58 58.5 58 143.5q0 86 -58 144t-143 58q-82 0 -142.5 -58t-60.5 -144q0 -85 60.5 -143.5t142.5 -58.5q85 0 143 58.5zM454 -24q-182 0 -310.5 128t-128.5 311q0 179 128.5 307.5t310.5 128.5q179 0 307.5 -128.5t128.5 -307.5q0 -183 -128.5 -311t-307.5 -128
zM302 984l270 360l180 -180z" />
    <glyph glyph-name="ocircumflex" unicode="&#xf4;" horiz-adv-x="905" 
d="M594 267.5q58 58.5 58 143.5q0 86 -58 144t-143 58q-82 0 -142.5 -58t-60.5 -144q0 -85 60.5 -143.5t142.5 -58.5q85 0 143 58.5zM454 -24q-182 0 -310.5 128t-128.5 311q0 179 128.5 307.5t310.5 128.5q179 0 307.5 -128.5t128.5 -307.5q0 -183 -128.5 -311t-307.5 -128
zM453 1115l-327 -131l300 400h53l300 -400z" />
    <glyph glyph-name="otilde" unicode="&#xf5;" horiz-adv-x="905" 
d="M594 267.5q58 58.5 58 143.5q0 86 -58 144t-143 58q-82 0 -142.5 -58t-60.5 -144q0 -85 60.5 -143.5t142.5 -58.5q85 0 143 58.5zM454 -24q-182 0 -310.5 128t-128.5 311q0 179 128.5 307.5t310.5 128.5q179 0 307.5 -128.5t128.5 -307.5q0 -183 -128.5 -311t-307.5 -128
zM729 1295v-158q-69 -63 -138 -63t-138.5 31.5t-138.5 31.5t-138 -63v158q69 63 138 63t138.5 -31.5t138.5 -31.5t138 63z" />
    <glyph glyph-name="odieresis" unicode="&#xf6;" horiz-adv-x="905" 
d="M594 267.5q58 58.5 58 143.5q0 86 -58 144t-143 58q-82 0 -142.5 -58t-60.5 -144q0 -85 60.5 -143.5t142.5 -58.5q85 0 143 58.5zM454 -24q-182 0 -310.5 128t-128.5 311q0 179 128.5 307.5t310.5 128.5q179 0 307.5 -128.5t128.5 -307.5q0 -183 -128.5 -311t-307.5 -128
zM377 1299v-229h-198v229h198zM725 1298v-229h-198v229h198z" />
    <glyph glyph-name="divide" unicode="&#xf7;" horiz-adv-x="1200" 
d="M100 800h1000v-200h-1000v200zM730 500v-300h-259v300h259zM730 1200v-311h-259v311h259z" />
    <glyph glyph-name="oslash" unicode="&#xf8;" horiz-adv-x="1002" 
d="M773 863q37 -26 72 -60q142 -143 142 -342q0 -203 -142.5 -345.5t-341.5 -142.5q-87 0 -162 26l-50 -100h-140l78 156q-37 26 -71 61q-143 142 -143 345q0 199 142.5 341.5t345.5 142.5q84 0 158 -25l50 99h140zM349 295l193 386q-19 3 -40 3q-91 0 -158 -64.5
t-67 -159.5t67 -160q3 -2 5 -5zM655 626l-194 -387q20 -4 41 -4q95 0 159.5 65t64.5 160t-64 160z" />
    <glyph glyph-name="ugrave" unicode="&#xf9;" horiz-adv-x="768" 
d="M313 809v-520q0 -30 20.5 -50.5t50.5 -20.5q29 0 50 20.5t21 50.5v520l218 1v-552q0 -106 -85 -182t-205 -76t-204 76t-84 181v552h218zM84 1164l180 180l270 -360z" />
    <glyph glyph-name="uacute" unicode="&#xfa;" horiz-adv-x="768" 
d="M313 809v-520q0 -30 20.5 -50.5t50.5 -20.5q29 0 50 20.5t21 50.5v520l218 1v-552q0 -106 -85 -182t-205 -76t-204 76t-84 181v552h218zM234 984l270 360l180 -180z" />
    <glyph glyph-name="ucircumflex" unicode="&#xfb;" horiz-adv-x="768" 
d="M313 809v-520q0 -30 20.5 -50.5t50.5 -20.5q29 0 50 20.5t21 50.5v520l218 1v-552q0 -106 -85 -182t-205 -76t-204 76t-84 181v552h218zM384 1115l-327 -131l300 400h53l300 -400z" />
    <glyph glyph-name="udieresis" unicode="&#xfc;" horiz-adv-x="768" 
d="M313 809v-520q0 -30 20.5 -50.5t50.5 -20.5q29 0 50 20.5t21 50.5v520l218 1v-552q0 -106 -85 -182t-205 -76t-204 76t-84 181v552h218zM309 1299v-229h-198v229h198zM657 1298v-229h-198v229h198z" />
    <glyph glyph-name="yacute" unicode="&#xfd;" horiz-adv-x="809" 
d="M577 810h217q-91 -157 -91 -405q0 -36 1 -74v-347q0 -145 -100 -249t-245 -104t-244.5 105t-99.5 206h233q0 -24 35.5 -58.5t85.5 -34.5t84 35t34 85v48q-65 -17 -110 -17q-134 0 -230 96.5t-96 231.5v482h218v-483q0 -45 32 -77t77 -32q46 0 77.5 33t31.5 76
q0 348 90 483zM255 984l270 360l180 -180z" />
    <glyph glyph-name="thorn" unicode="&#xfe;" horiz-adv-x="1018" 
d="M571 201q90 0 152 62.5t62 151.5t-62 152t-152 63q-89 0 -151 -63t-62 -152t62 -151.5t151 -62.5zM358 804q86 43 213 43q179 0 305.5 -126.5t126.5 -305.5t-126.5 -305t-305.5 -126q-85 0 -198 51v-458h-233v1861h218v-634z" />
    <glyph glyph-name="ydieresis" unicode="&#xff;" horiz-adv-x="809" 
d="M577 810h217q-91 -157 -91 -405q0 -36 1 -74v-347q0 -145 -100 -249t-245 -104t-244.5 105t-99.5 206h233q0 -24 35.5 -58.5t85.5 -34.5t84 35t34 85v48q-65 -17 -110 -17q-134 0 -230 96.5t-96 231.5v482h218v-483q0 -45 32 -77t77 -32q46 0 77.5 33t31.5 76
q0 348 90 483zM330 1299v-229h-198v229h198zM678 1298v-229h-198v229h198z" />
    <glyph glyph-name="OE" unicode="&#x152;" horiz-adv-x="2072" 
d="M1330 725q0 207 -147.5 355t-358.5 148q-205 0 -353 -148t-148 -355q0 -205 148 -353t353 -148q211 0 358.5 148t147.5 353zM1335 202q-213 -211 -514 -211q-303 0 -517 214t-214 517t214 517t517 214q301 0 514 -211v202h607v-225h-382v-256q164 121 273 121v-194
q-273 -125 -273 -288v-373h405v-225h-630v198z" />
    <glyph glyph-name="oe" unicode="&#x153;" horiz-adv-x="1562" 
d="M652 411q0 86 -58 144t-143 58q-82 0 -142.5 -58t-60.5 -144q0 -85 60.5 -143.5t142.5 -58.5q85 0 143 58.5t58 143.5zM890 406l300 229q-51 12 -78 12q-93 0 -157.5 -64.5t-64.5 -176.5zM775 118q-7 -7 -13 -14q-129 -128 -308 -128q-182 0 -310.5 128t-128.5 311
q0 179 128.5 307.5t310.5 128.5q179 0 308 -128q5 -6 11 -12q6 7 13 14q128 128 310 128q179 0 280.5 -78t101.5 -136l-502 -389q43 -39 136 -39q90 0 229 82v-233q-66 -82 -245 -82q-182 0 -310 129q-6 5 -11 11z" />
    <glyph glyph-name="Scaron" unicode="&#x160;" horiz-adv-x="1056" 
d="M909 2014l-300 -400h-53l-300 400l327 -131zM1027 1462l74 -206q-132 0 -216 -81.5t-84 -319.5q0 -443 -137.5 -649t-374.5 -206q-129 0 -226 94l86 186q77 -55 124 -55q132 0 217.5 132.5t85.5 466.5q0 358 132.5 498t318.5 140z" />
    <glyph glyph-name="scaron" unicode="&#x161;" horiz-adv-x="492" 
d="M573 1384l-300 -400h-53l-300 400l327 -131zM418 872v-186q-77 -55 -77 -109q0 -71 38.5 -125t38.5 -155q0 -191 -218 -327l-124 171q109 101 109 171q0 78 -31 155.5t-31 139.5q0 114 79.5 189.5t215.5 75.5z" />
    <glyph glyph-name="Ydieresis" unicode="&#x178;" horiz-adv-x="1031" 
d="M18 1440h230q135 -274 268 -367h15q148 93 265 367h217q0 -196 -373 -585v-855h-233v855q-389 389 -389 585zM441 1929v-229h-198v229h198zM789 1928v-229h-198v229h198z" />
    <glyph glyph-name="Zcaron" unicode="&#x17d;" horiz-adv-x="932" 
d="M757 2014l-300 -400h-53l-300 400l327 -131zM842 1438q0 -692 -381 -1205h381v-233h-824q575 727 575 1229h-404v209h653z" />
    <glyph glyph-name="zcaron" unicode="&#x17e;" horiz-adv-x="637" 
d="M635 1384l-300 -400h-53l-300 400l327 -131zM612 810q0 -330 -183 -592h178v-218h-602q305 417 311 592h-171v218h467z" />
    <glyph glyph-name="florin" unicode="&#x192;" horiz-adv-x="530" 
d="M437 1384l130 -155q-182 -175 -206 -334l-6 -40h109l-32 -218h-109l-172 -1131h-218l210 1389q37 248 294 489z" />
    <glyph glyph-name="circumflex" unicode="&#x2c6;" horiz-adv-x="853" 
d="M427 1115l-327 -131l300 400h53l300 -400z" />
    <glyph glyph-name="tilde" unicode="&#x2dc;" horiz-adv-x="1000" 
d="M783 1295v-158q-69 -63 -138 -63t-138.5 31.5t-138.5 31.5t-138 -63v158q69 63 138 63t138.5 -31.5t138.5 -31.5t138 63z" />
    <glyph glyph-name="uni0315" unicode="&#x315;" horiz-adv-x="460" 
d="M256 1008h-216q104 86 104 432h216q0 -346 -104 -432z" />
    <glyph glyph-name="endash" unicode="&#x2013;" horiz-adv-x="1000" 
d="M100 -100h800v-100h-800v100z" />
    <glyph glyph-name="emdash" unicode="&#x2014;" horiz-adv-x="1800" 
d="M100 -100h1600v-100h-1600v100z" />
    <glyph glyph-name="quoteleft" unicode="&#x2018;" horiz-adv-x="470" 
d="M100 1440h216q0 -346 104 -432h-216q-104 86 -104 432z" />
    <glyph glyph-name="quoteright" unicode="&#x2019;" horiz-adv-x="460" 
d="M256 1008h-216q104 86 104 432h216q0 -346 -104 -432z" />
    <glyph glyph-name="quotesinglbase" unicode="&#x201a;" horiz-adv-x="460" 
d="M256 -216h-216q104 86 104 432h216q0 -346 -104 -432z" />
    <glyph glyph-name="quotedblleft" unicode="&#x201c;" horiz-adv-x="918" 
d="M100 1440h216q0 -346 104 -432h-216q-104 86 -104 432zM548 1440h216q0 -346 104 -432h-216q-104 86 -104 432z" />
    <glyph glyph-name="quotedblright" unicode="&#x201d;" horiz-adv-x="908" 
d="M256 1008h-216q104 86 104 432h216q0 -346 -104 -432zM704 1008h-216q104 86 104 432h216q0 -346 -104 -432z" />
    <glyph glyph-name="quotedblbase" unicode="&#x201e;" horiz-adv-x="908" 
d="M256 -216h-216q104 86 104 432h216q0 -346 -104 -432zM704 -216h-216q104 86 104 432h216q0 -346 -104 -432z" />
    <glyph glyph-name="dagger" unicode="&#x2020;" horiz-adv-x="1200" 
d="M100 1200h400v400h200v-400h400v-200h-400v-1000h-200v1000h-400v200z" />
    <glyph glyph-name="daggerdbl" unicode="&#x2021;" horiz-adv-x="1200" 
d="M500 1000h-400v200h400v400h200v-400h400v-200h-400v-400h400v-200h-400v-400h-200v400h-400v200h400v400z" />
    <glyph glyph-name="bullet" unicode="&#x2022;" horiz-adv-x="450" 
d="M225 595q-52 0 -88.5 36.5t-36.5 88.5q0 51 36.5 88t88.5 37q51 0 88 -37t37 -88q0 -52 -37 -88.5t-88 -36.5z" />
    <glyph glyph-name="ellipsis" unicode="&#x2026;" horiz-adv-x="2048" 
d="M433 270v-270h-233v270h233zM1116 270v-270h-233v270h233zM1799 270v-270h-233v270h233z" />
    <glyph glyph-name="guilsinglleft" unicode="&#x2039;" horiz-adv-x="610" 
d="M100 653l374 282l36 -187l-235 -178l235 -177l-36 -188l-374 283v165z" />
    <glyph glyph-name="guilsinglright" unicode="&#x203a;" horiz-adv-x="610" 
d="M510 488l-374 -283l-36 188l235 177l-235 178l36 187l374 -282v-165z" />
    <glyph glyph-name="Euro" unicode="&#x20ac;" horiz-adv-x="1141" 
d="M525 700q28 -191 146 -303q154 -147 397 -147l-118 -250q-242 0 -444 231q-165 189 -195 469h-257l26 100h224v29q0 36 2 71h-200l26 100h186q40 226 189 388q202 219 443 219l103 -250q-209 0 -373 -132q-106 -85 -143 -225h447l-26 -100h-439q-3 -34 -3 -71v-29h416
l-26 -100h-381z" />
    <glyph glyph-name="trademark" unicode="&#x2122;" horiz-adv-x="1100" 
d="M400 1598v-100h-106v-540h-143v540h-101v100h350zM695 1360q80 151 216 270l148 -670h-147l-82 394q-42 -30 -120 -242h-15l-121 242q-62 -131 -62 -394h-143q0 319 172 670q109 -218 154 -270z" />
    <glyph glyph-name="racute" unicode="&#x155;" horiz-adv-x="499" 
d="M469 871v-187q-39 0 -97.5 -60.5t-58.5 -125.5v-498h-218v840h218v-47q70 78 156 78zM132 984l270 360l180 -180z" />
    <glyph glyph-name="Uring" unicode="&#x16e;" horiz-adv-x="990" 
d="M495 1615q-83 0 -141.5 58.5t-58.5 141.5t58.5 141.5t141.5 58.5t141.5 -58.5t58.5 -141.5t-58.5 -141.5t-141.5 -58.5zM565.5 1744.5q29.5 29.5 29.5 70.5t-29.5 70.5t-70.5 29.5t-70.5 -29.5t-29.5 -70.5t29.5 -70.5t70.5 -29.5t70.5 29.5zM900 1440v-1032
q0 -170 -119 -289t-286 -119q-166 0 -285.5 119t-119.5 286v1035h225v-1035q0 -75 52.5 -127.5t127.5 -52.5t127.5 52.5t52.5 127.5v1035h225z" />
  </font>
</defs>
</svg>
